<svg id="Group_17795" data-name="Group 17795" xmlns="http://www.w3.org/2000/svg" width="121.322" height="56" viewBox="0 0 121.322 56">
  <g id="Group_73874" data-name="Group 73874" transform="translate(0)">
    <path id="Path_84560" data-name="Path 84560" d="M60.833,6.924c-.359,1.709-.708,3.31-1.056,4.975.337.033.577.065.816.065,2.972.022,5.933.033,8.905.054a5.553,5.553,0,0,1,.74.033c1.23.185,1.655.729,1.546,1.97a8.985,8.985,0,0,1-.185,1.306A2.834,2.834,0,0,1,68.5,17.8c-2.972,0-5.933-.033-8.905-.054H58.525c-.359,1.655-.729,3.277-1.078,4.9-.294,1.372-.577,2.743-.882,4.1a2.635,2.635,0,0,1-2.754,2.243q-2.058.065-4.115-.033c-1.47-.065-2.058-.893-1.753-2.33q2.041-9.536,4.093-19.084c.337-1.579.664-3.168,1-4.757A2.6,2.6,0,0,1,55.869.446q9.144.033,18.3.12c1.611.022,2.177.762,1.905,2.33-.1.6-.229,1.187-.381,1.775a2.725,2.725,0,0,1-3.059,2.3c-2.994,0-5.987-.033-8.981-.054-.925.011-1.862.011-2.82.011m41.488.185h-1.579c-1.764.022-3.516.076-5.269.065s-2.33-.729-2.068-2.449c.087-.566.218-1.132.316-1.7a2.728,2.728,0,0,1,2.961-2.6c2.362-.076,4.725-.12,7.087-.163q7.381-.131,14.751-.25c2.569-.043,3.114.577,2.656,3.081-.065.381-.131.762-.207,1.132a2.75,2.75,0,0,1-2.918,2.569c-1.589.076-3.19.065-4.779.087-.762.011-1.524,0-2.33,0-.207,1.132-.392,2.123-.577,3.113q-1.649,8.981-3.32,17.973a2.631,2.631,0,0,1-2.656,2.362c-1.372.087-2.743.1-4.115.065a1.635,1.635,0,0,1-1.785-2.155c.664-3.81,1.361-7.62,2.058-11.431.577-3.179,1.165-6.358,1.774-9.7M13.706,16.471c-.392,1.894-.751,3.658-1.121,5.432-.37,1.8-.969,2.3-2.809,2.341-.936.022-1.872.044-2.8,0-1.415-.065-1.905-.7-1.644-2.1.316-1.666.675-3.331,1-5.008C7.3,12.291,8.284,7.457,9.242,2.613,9.613.74,10.222.185,12.127.174c3.516-.022,7.033,0,10.549,0a9.544,9.544,0,0,1,4.082.816A6.268,6.268,0,0,1,30.3,8.078a9.758,9.758,0,0,1-8.4,8.11,49.563,49.563,0,0,1-6.238.272c-.61.033-1.241.011-1.949.011m1.045-5.095c1.753,0,3.429.087,5.095-.022A3.4,3.4,0,0,0,22.861,8.9a2.26,2.26,0,0,0-1.676-3.211c-1.72-.12-3.44-.033-5.28-.033-.392,1.894-.773,3.788-1.154,5.715M85.436,0h1.818c1.415.011,2.177.751,2.047,2.166-.131,1.361-.381,2.722-.6,4.071q-1.274,7.805-2.569,15.6c-.5,3.059-.991,6.118-1.524,9.177a2.855,2.855,0,0,1-3.07,2.613c-1.121.044-2.253.076-3.375.065-1.818-.022-2.482-.816-2.2-2.624q1-6.222,2.025-12.443,1.29-7.887,2.569-15.774A2.881,2.881,0,0,1,83.727.087C84.3.076,85.436,0,85.436,0m-50.7,26.116c-.74,0-1.481.043-2.221-.011-1.47-.1-1.992-.816-1.655-2.243q2.482-10.435,4.986-20.88A2.383,2.383,0,0,1,38.189.925c1.72-.087,3.462-.087,5.182-.011,1.306.054,1.807.805,1.513,2.057-.653,2.809-1.339,5.6-2.014,8.393-.969,4.05-1.949,8.11-2.907,12.16a2.866,2.866,0,0,1-3.157,2.591c-.7.022-1.383.011-2.068,0M0,28.087c1.415-.3,2.82-.642,4.246-.893a71.227,71.227,0,0,1,14.827-1.219,70.764,70.764,0,0,1,12.672,1.481c5.9,1.3,11.768,2.689,17.658,4.028,5.694,1.3,11.4,2.6,17.1,3.832A65.554,65.554,0,0,0,89.028,36.4a53.7,53.7,0,0,0,13.739-3.886c3.081-1.3,6.107-2.722,9.155-4.093a13.907,13.907,0,0,1,2.417-.925c-.566.435-1.11.893-1.7,1.3a55.782,55.782,0,0,1-16.678,7.86,43.837,43.837,0,0,1-9.482,2.025,86.849,86.849,0,0,1-9.221.087,81.12,81.12,0,0,1-9.33-.969c-4.442-.751-8.851-1.676-13.238-2.667-6.02-1.361-12-2.9-18.017-4.278-4.572-1.045-9.166-2-13.76-2.928a34.456,34.456,0,0,0-4.5-.523,65.322,65.322,0,0,0-14.795.49c-1.187.2-2.395.272-3.592.414-.011-.076-.022-.152-.033-.218m53.408,11.05a8.432,8.432,0,1,1-8.361,8.415,8.454,8.454,0,0,1,8.361-8.415m5.944,4.039c-.218-.011-.457-.044-.7-.044-1.589,0-3.19-.011-4.779,0-1.208,0-1.437.3-1.2,1.7.653.054,1.339.12,2.09.185-.359,2.166-.708,4.224-1.056,6.249,1.459.523,1.96.272,2.2-1,.283-1.5.544-3.026.816-4.529.044-.261.142-.512.218-.806h1.219c1.176-.011,1.568-.544,1.187-1.753M48.074,51.242c1.361.544,1.992.261,2.2-.871.37-2.134.74-4.257,1.1-6.39a3.844,3.844,0,0,0-.033-.784c-.283-.033-.468-.076-.653-.076-1.143-.033-1.241.011-1.448,1.143-.337,1.753-.631,3.505-.936,5.258-.109.577-.152,1.165-.229,1.72M2.852,49.326c-.25,1-.479,1.883-.675,2.7H.011a82.861,82.861,0,0,1,1.6-8.72c1.687.087,3.244.12,4.79.261a1.9,1.9,0,0,1,1.611,1.666,3.47,3.47,0,0,1-3.168,4.082c-.664.022-1.317.011-1.992.011m.664-3.952c-.152.751-.261,1.328-.381,1.905,1.894.392,2.689-.163,2.286-1.72-.566-.065-1.2-.12-1.905-.185m35.936,6.51a4.721,4.721,0,0,1-2.5.381,2.341,2.341,0,0,1-1.938-2.079c-.414-2.471,1.742-4.888,3.843-4.572a10.584,10.584,0,0,1,1.589.5,1.834,1.834,0,0,1,2.155-.207,1.954,1.954,0,0,1,.065.577c-.3,1.807-.588,3.625-.98,5.421a3.642,3.642,0,0,1-2.83,2.983,5.039,5.039,0,0,1-4.115-.544c.131-1.23.642-1.579,1.687-1.241a2.242,2.242,0,0,0,2.645-.49,3.288,3.288,0,0,0,.381-.729M37.275,49.2a1.166,1.166,0,0,0,1.034,1.339,1.967,1.967,0,0,0,1.742-1.872,1.144,1.144,0,0,0-1.11-1.274A1.826,1.826,0,0,0,37.275,49.2M12.443,51.677a3.518,3.518,0,0,1-2.362.621,2.324,2.324,0,0,1-2.047-1.97c-.457-2.264,1.263-4.921,3.832-4.7a8.432,8.432,0,0,1,1.611.5c.533-.6,1.306-.468,2.177-.3a3.368,3.368,0,0,1,.054.795c-.25,1.546-.544,3.081-.795,4.616-.076.468-.218.893-.751.925-.61.044-1.285.261-1.72-.479m-2.079-2.449c-.011.86.294,1.219,1.045,1.219a1.71,1.71,0,0,0,1.633-1.807,1.109,1.109,0,0,0-1.089-1.274,1.755,1.755,0,0,0-1.589,1.862m9.319-.109c.523-.893.958-1.644,1.393-2.406.61-1.056,1.252-1.285,2.591-.795a3.265,3.265,0,0,1-.25.86c-1.5,2.482-3.037,4.964-4.561,7.435a1.6,1.6,0,0,1-2.3.544c-.163-.664.327-1.1.61-1.6.294-.523.61-1.034.936-1.579-.435-1.546-.871-3.07-1.3-4.6-.142-.523-.327-1.11.446-1.23,1.034-.152,1.764-.131,1.883.719s.337,1.655.544,2.656m12.084-1.546c-1-.131-1.437.12-1.644.969-.185.74-.3,1.5-.435,2.264-.239,1.437-.958,1.807-2.515,1.078.337-1.949.7-3.952,1.034-5.868,1.056-.5,1.774-.435,2.243.033a14.469,14.469,0,0,1,2.134-.425,1.478,1.478,0,0,1,1.687,1.6,29.806,29.806,0,0,1-.381,3.255c-.011.087-.044.163-.054.239-.261,1.491-.795,1.807-2.362,1.285-.272-1.448.751-2.907.294-4.431m-4.932-1.655a5.96,5.96,0,0,1-.054.893c-.239,1.437-.5,2.863-.751,4.3a1.4,1.4,0,0,1-2.112.969.853.853,0,0,1-.25-.7c.229-1.546.5-3.081.784-4.616.185-1.067.871-1.328,2.384-.849m-.849-.7c-.708,0-1.219-.4-1.208-.958a1.4,1.4,0,0,1,1.481-1.252c.719-.011,1.2.37,1.208.947a1.5,1.5,0,0,1-1.481,1.263m60.985.533c.1.882.207,1.764.3,2.656a1.275,1.275,0,0,1,.12.054c.261-.523.523-1.045.773-1.557.12-.25.185-.566.381-.718a1.706,1.706,0,0,1,1.034-.457c.239.022.544.468.631.784.174.6.229,1.23.468,1.894.283-.6.566-1.208.838-1.807.544-1.2,1.328-1.47,2.689-.849a4.047,4.047,0,0,1-.24.86c-.816,1.557-1.676,3.081-2.471,4.648a1.27,1.27,0,0,1-1.546.751,1.1,1.1,0,0,1-.7-.621,21.414,21.414,0,0,1-.4-2.319c-.414.827-.74,1.459-1.067,2.1a1.308,1.308,0,0,1-1.579.86c-.686-.1-.751-.6-.838-1.143-.207-1.274-.435-2.537-.664-3.8-.272-1.491.174-1.916,1.666-1.589a2.433,2.433,0,0,1,.6.25m12.476.25a1.735,1.735,0,0,1,2.3-.25,7.088,7.088,0,0,1-.011,1.176c-.229,1.35-.5,2.689-.729,4.039-.087.49-.2.914-.762,1.034a1.5,1.5,0,0,1-1.687-.533c-.3.152-.61.327-.925.457a2.509,2.509,0,0,1-3.571-2.079,4.147,4.147,0,0,1,2.569-4.267,2.631,2.631,0,0,1,2.82.425m-.327,2.471a1.109,1.109,0,0,0-1.176-1.263,1.928,1.928,0,0,0-1.6,1.894,1.134,1.134,0,0,0,1.121,1.154,1.742,1.742,0,0,0,1.655-1.785M64.1,51.645c.142-.925.272-1.84.425-2.754.261-1.513.533-3.026.806-4.529.163-.893.337-1.034,1.252-1.045,1.35-.011,2.689-.011,4.039,0a5.426,5.426,0,0,1,.762.087c.4,1.23-.044,1.916-1.208,1.927-.849.011-1.687,0-2.569,0-.109.5-.2.893-.316,1.426h2.983c.392,1.317.054,1.818-1.132,1.829H66.994a16.8,16.8,0,0,0-.4,2.2c-.054,1.328-1.285,1.557-2.493.86m6.956-2.33c-.152-2.809,3.44-4.953,6.085-3.505a2.967,2.967,0,0,1,.838,4.126,4.45,4.45,0,0,1-5.029,2.025,2.635,2.635,0,0,1-1.894-2.645m5.149-.838A1.141,1.141,0,0,0,75,47.236a1.877,1.877,0,0,0-1.774,1.8,1.2,1.2,0,0,0,1.241,1.241,1.78,1.78,0,0,0,1.742-1.8m2.6,3.19c.185-1.143.381-2.3.577-3.451.087-.544.218-1.067.283-1.611.076-.566.24-1.045.882-1.11.61-.065,1.274-.2,1.557.642.653-.479,1.241-1.012,2.253-.544-.152.642-.3,1.285-.457,1.916-.337.033-.544.065-.762.076a1.429,1.429,0,0,0-1.415,1.154c-.185.686-.294,1.393-.435,2.09-.294,1.252-1.143,1.6-2.482.838M105.478,46.1c.631-.414,1.154-.9,2.112-.566-.076.61-.163,1.252-.24,1.862a2.328,2.328,0,0,1-.435.152c-1.437.152-1.742.414-2.047,1.862-.1.479-.152.969-.25,1.459-.261,1.219-1.219,1.568-2.373.784.044-.435.087-.925.163-1.393.218-1.274.457-2.537.675-3.8a1,1,0,0,1,.86-.958,1.273,1.273,0,0,1,1.535.6m9.743-2.983a3.327,3.327,0,0,0-.708-.152c-1.067-.185-1.089.25-1.089.25s-.25,1.034-.283,1.23c-.087.5-.174,1.012-.272,1.622a2.829,2.829,0,0,0-3.538-.174,4.111,4.111,0,0,0-1.949,3.974,2.342,2.342,0,0,0,2.2,2.221,10.821,10.821,0,0,0,2.384-.425c.261.61.969.381,1.557.348s.7-.5.784-1c.4-2.319.849-4.638,1.252-6.956l.054-.294a.578.578,0,0,0-.392-.642m-4.376,7.207a1.147,1.147,0,0,1-1.132-1.241,1.826,1.826,0,0,1,1.568-1.894,1.131,1.131,0,0,1,1.187,1.263,1.9,1.9,0,0,1-1.622,1.872" transform="translate(0)" fill="#1FAAFF"/>
  </g>
</svg>
