<svg id="Total_Gift_Cards" data-name="Total Gift Cards" xmlns="http://www.w3.org/2000/svg" width="106.291" height="121.737" viewBox="0 0 106.291 121.737">
  <path id="Path_84561" data-name="Path 84561" d="M125.811,245.421l-11.556-4.209a3.336,3.336,0,0,0-1.212-.214H39a3.532,3.532,0,0,0-3.567,3.567v50.169a10.685,10.685,0,0,0,10.7,10.7h71.331a10.685,10.685,0,0,0,10.7-10.7V248.774A3.539,3.539,0,0,0,125.811,245.421Z" transform="translate(-34.733 -183.697)" fill="#c7ceff"/>
  <path id="Path_84562" data-name="Path 84562" d="M276.8,248.774v45.961a10.685,10.685,0,0,1-10.7,10.7H230.435V241h31.243a3.333,3.333,0,0,1,1.212.214l11.556,4.209A3.539,3.539,0,0,1,276.8,248.774Z" transform="translate(-183.368 -183.697)" fill="#1f39ff"/>
  <path id="Path_84563" data-name="Path 84563" d="M220.213,23.251a14.439,14.439,0,0,0-9.772-10.343,14.211,14.211,0,0,0-13.838,3l-8.275,7.276-1.64-10.913a14.45,14.45,0,0,0-8.773-11.2,13.541,13.541,0,0,0-2.782-.785,14.185,14.185,0,0,0-11.27,2.5,14.4,14.4,0,0,0,3.567,25.251l7.7,2.782,9.487,3.5h.071l16.477,6.063a15.3,15.3,0,0,0,4.993.856,14.535,14.535,0,0,0,14.052-17.976Z" transform="translate(-128.065 0)" fill="#f5ee9e"/>
  <path id="Path_84564" data-name="Path 84564" d="M271.093,38.422a14.423,14.423,0,0,1-9.63,3.709,15.306,15.306,0,0,1-4.993-.856l-16.477-6.063h-.071l-9.487-3.5V1.187a13.558,13.558,0,0,1,2.782.785,14.449,14.449,0,0,1,8.773,11.2l1.64,10.913,8.275-7.276a14.211,14.211,0,0,1,13.838-3,14.454,14.454,0,0,1,5.35,24.609Z" transform="translate(-183.368 -0.905)" fill="#ffcc01"/>
  <path id="Path_84565" data-name="Path 84565" d="M138.112,94.091l-4.85,13.41a3.612,3.612,0,0,1-3.353,2.283,3.336,3.336,0,0,1-1.212-.214L91.818,96.16,88.466,85.1l-8.916,2L71.7,88.884,34.825,75.474a3.63,3.63,0,0,1-2.14-4.565L37.607,57.5a10.633,10.633,0,0,1,13.7-6.42L79.55,61.35l1.926.713s7.7,13.981,7.918,13.981c.143,0,3.21-1.712,6.206-3.353s5.991-3.352,5.991-3.352l30.1,10.985a10.812,10.812,0,0,1,6.063,5.564A10.557,10.557,0,0,1,138.112,94.091Z" transform="translate(-32.482 -38.43)" fill="#c7ceff"/>
  <path id="Path_84566" data-name="Path 84566" d="M289,129.14l-4.851,13.41a3.612,3.612,0,0,1-3.353,2.283,3.334,3.334,0,0,1-1.212-.214L242.7,131.208l-3.352-11.056-8.916,2V96.4l1.926.713s7.7,13.981,7.918,13.981c.143,0,3.21-1.712,6.206-3.353s5.992-3.352,5.992-3.352l30.1,10.985a10.813,10.813,0,0,1,6.063,5.564A10.558,10.558,0,0,1,289,129.14Z" transform="translate(-183.368 -73.478)" fill="#1f39ff"/>
  <g id="Group_17796" data-name="Group 17796" transform="translate(36.367 23.634)">
    <path id="Path_84567" data-name="Path 84567" d="M185.435,241v64.435h21.4V241Z" transform="translate(-185.435 -207.331)" fill="#f5ee9e"/>
    <path id="Path_84568" data-name="Path 84568" d="M207.207,99.4l-1.926,5.278-7.846,21.542,7.846,2.854,8.916,3.21,3.352,1.212,9.773-26.82Z" transform="translate(-194.582 -99.398)" fill="#f5ee9e"/>
  </g>
  <g id="Group_17797" data-name="Group 17797" transform="translate(47.067 23.634)">
    <rect id="Rectangle_8496" data-name="Rectangle 8496" width="10.7" height="64.435" transform="translate(0.001 33.668)" fill="#ffcc01"/>
    <path id="Path_84569" data-name="Path 84569" d="M252.476,106.674l-9.773,26.82-3.352-1.213-8.916-3.21v-24.4l1.926-5.278Z" transform="translate(-230.435 -99.398)" fill="#ffcc01"/>
  </g>
</svg>
