<svg id="Are_you_sure_" data-name="Are you sure?" xmlns="http://www.w3.org/2000/svg" width="108.29" height="107.046" viewBox="0 0 108.29 107.046">
  <path id="Path_84447" data-name="Path 84447" d="M51.789,24.454v3.037H2V24.454C2,15.691,4.191,13.5,13.053,13.5H40.736c8.862,0,11.053,2.191,11.053,10.954Z" transform="translate(1.734 47.491)" fill="#1f39ff" opacity="0.4"/>
  <path id="Path_84448" data-name="Path 84448" d="M2,16.31V33.686C2,42.449,4.191,44.64,13.053,44.64H40.736c8.862,0,11.053-2.191,11.053-10.954V16.31Z" transform="translate(1.734 58.672)" fill="#1f39ff"/>
  <g id="Group_17345" data-name="Group 17345" transform="translate(0)" opacity="0.4">
    <path id="Path_84449" data-name="Path 84449" d="M52.836,14.25a3.734,3.734,0,0,1,3.734,3.734A38.561,38.561,0,0,1,17.984,56.57a3.734,3.734,0,0,1-3.2-5.656L20.01,42.2a3.734,3.734,0,1,1,6.4,3.843L25.063,48.3A31.1,31.1,0,0,0,49.1,17.984a3.734,3.734,0,0,1,3.734-3.734Z" transform="translate(50.475 50.475)" fill="#1f39ff" fill-rule="evenodd"/>
    <path id="Path_84450" data-name="Path 84450" d="M32.757,9.525A31.1,31.1,0,0,0,8.718,39.836a3.734,3.734,0,1,1-7.468,0A38.561,38.561,0,0,1,39.836,1.25a3.734,3.734,0,0,1,3.2,5.655l-5.228,8.713a3.734,3.734,0,1,1-6.4-3.842Z" transform="translate(-1.25 -1.25)" fill="#1f39ff" fill-rule="evenodd"/>
  </g>
  <path id="Path_84451" data-name="Path 84451" d="M58.81,6.5H14a22.4,22.4,0,1,0,44.81,0Z" transform="translate(49.481 19.639)" fill="#1f39ff" opacity="0.4"/>
  <path id="Path_84452" data-name="Path 84452" d="M58.81,24.4A22.4,22.4,0,1,0,14,24.4Z" transform="translate(49.481 1.734)" fill="#1f39ff"/>
</svg>
