<svg xmlns="http://www.w3.org/2000/svg" xmlns:xlink="http://www.w3.org/1999/xlink" width="550" height="324" viewBox="0 0 550 324">
  <defs>
    <clipPath id="clip-path">
      <rect id="Rectangle_33201" data-name="Rectangle 33201" width="550" height="324" transform="translate(-136 151)" fill="#fff"/>
    </clipPath>
    <linearGradient id="linear-gradient" x1="1" y1="0.399" x2="0.5" y2="1" gradientUnits="objectBoundingBox">
      <stop offset="0" stop-color="#1fa9ff"/>
      <stop offset="1" stop-color="#1fa9ff" stop-opacity="0"/>
    </linearGradient>
    <clipPath id="clip-How_it_works_-_Pattern_2">
      <rect width="550" height="324"/>
    </clipPath>
  </defs>
  <g id="How_it_works_-_Pattern_2" data-name="How it works - Pattern 2" clip-path="url(#clip-How_it_works_-_Pattern_2)">
    <g id="BG" transform="translate(136 -151)" opacity="0.5" clip-path="url(#clip-path)">
      <path id="Ellipse_653_-_Outline" data-name="Ellipse 653 - Outline" d="M395.823,45.715c-193.359,0-350.108,156.749-350.108,350.108S202.463,745.93,395.823,745.93,745.93,589.182,745.93,395.823,589.182,45.715,395.823,45.715m0-72.715c233.145,0,422.823,189.677,422.823,422.823S628.968,818.645,395.823,818.645-27,628.968-27,395.823,162.677-27,395.823-27Z" transform="matrix(0.588, 0.809, -0.809, 0.588, 372.168, -503.886)" fill="url(#linear-gradient)"/>
    </g>
  </g>
</svg>
