<svg id="INFO" xmlns="http://www.w3.org/2000/svg" width="80" height="80" viewBox="0 0 80 80">
  <path id="Path_84262" data-name="Path 84262" d="M40,0A40,40,0,1,0,80,40,40,40,0,0,0,40,0Z" transform="translate(0 0)" fill="#f5ee9e"/>
  <path id="Path_84263" data-name="Path 84263" d="M18.767,62.411A43.577,43.577,0,0,0,60.206,5.468,40.008,40.008,0,0,0,5.575,60.375,43.5,43.5,0,0,0,18.767,62.411Z" transform="translate(0 0)" fill="#ffea00"/>
  <path id="Path_84264" data-name="Path 84264" d="M220.782,136.591a6.5,6.5,0,1,1,6.5-6.508A6.5,6.5,0,0,1,220.782,136.591Zm6.3-22.391a4.375,4.375,0,0,1-1.284,2.648,4.517,4.517,0,0,1-2.7,1.261h-.03a16.881,16.881,0,0,1-1.919.109,21.922,21.922,0,0,1-2.3-.109h-.031a4.517,4.517,0,0,1-2.7-1.261,4.375,4.375,0,0,1-1.284-2.648c-.156-1.467-.234-11.656-.234-13.927s.08-12.486.234-13.953a4.375,4.375,0,0,1,1.284-2.656,4.531,4.531,0,0,1,2.7-1.261h.031a16.7,16.7,0,0,1,2.3-.07,11.589,11.589,0,0,1,1.917.07h.031a4.531,4.531,0,0,1,2.7,1.273,4.375,4.375,0,0,1,1.284,2.656c.156,1.467.234,11.684.234,13.953S227.238,112.739,227.083,114.2Z" transform="translate(-180.799 -69.458)" fill="#042439"/>
</svg>
