<svg id="Points" xmlns="http://www.w3.org/2000/svg" width="109.564" height="121.737" viewBox="0 0 109.564 121.737">
  <g id="Group_17064" data-name="Group 17064" transform="translate(0 0)">
    <g id="Group_17061" data-name="Group 17061">
      <g id="Group_17058" data-name="Group 17058">
        <g id="Group_17031" data-name="Group 17031" transform="translate(0 54.782)">
          <g id="Group_17030" data-name="Group 17030">
            <path id="Path_70225" data-name="Path 70225" d="M3.6,16.4A54.554,54.554,0,0,0,58.382,71.182,54.8,54.8,0,0,0,113.164,16.4V28.574a54.782,54.782,0,1,1-109.564,0Z" transform="translate(-3.6 -16.4)" fill="#ffb961"/>
          </g>
        </g>
        <g id="Group_17033" data-name="Group 17033" transform="translate(0 54.782)">
          <g id="Group_17032" data-name="Group 17032">
            <path id="Path_70226" data-name="Path 70226" d="M3.6,16.4A54.554,54.554,0,0,0,58.382,71.182,54.8,54.8,0,0,0,113.164,16.4V28.574a54.782,54.782,0,1,1-109.564,0Z" transform="translate(-3.6 -16.4)" fill="#1f39ff"/>
          </g>
        </g>
        <g id="Group_17035" data-name="Group 17035" transform="translate(24.728 54.782)" opacity="0.6">
          <g id="Group_17034" data-name="Group 17034">
            <path id="Path_70227" data-name="Path 70227" d="M40.154,71.182A53.9,53.9,0,0,1,10.1,62.052V74.225A54.607,54.607,0,0,0,94.936,28.574V16.4A55.042,55.042,0,0,1,40.154,71.182Z" transform="translate(-10.1 -16.4)" fill="#1fa9ff"/>
          </g>
        </g>
        <g id="Group_17037" data-name="Group 17037" transform="translate(64.293 54.401)">
          <g id="Group_17036" data-name="Group 17036">
            <path id="Path_70228" data-name="Path 70228" d="M20.5,70.321V82.495A55.134,55.134,0,0,0,65.771,28.474V16.3A54.477,54.477,0,0,1,20.5,70.321Z" transform="translate(-20.5 -16.3)" fill="#1f39ff"/>
          </g>
        </g>
        <g id="Group_17039" data-name="Group 17039" transform="translate(95.107 54.782)" opacity="0.6">
          <g id="Group_17038" data-name="Group 17038">
            <path id="Path_70229" data-name="Path 70229" d="M28.6,53.3V65.475a54.088,54.088,0,0,0,14.456-36.9V16.4A55.93,55.93,0,0,1,28.6,53.3Z" transform="translate(-28.6 -16.4)" fill="#1fa9ff"/>
          </g>
        </g>
        <g id="Group_17041" data-name="Group 17041" transform="translate(0.047)">
          <g id="Group_17040" data-name="Group 17040">
            <path id="Path_70230" data-name="Path 70230" d="M113.129,56.782a54.751,54.751,0,0,1-108.8,8.75C-1,32.815,24.109,2,58.347,2a54.094,54.094,0,0,1,50.978,35.38C111.988,43.086,113.129,49.934,113.129,56.782Z" transform="translate(-3.612 -2)" fill="#c7ceff"/>
          </g>
        </g>
        <g id="Group_17043" data-name="Group 17043" transform="translate(13.315 82.173)" opacity="0.4">
          <g id="Group_17042" data-name="Group 17042">
            <path id="Path_70231" data-name="Path 70231" d="M7.1,23.98C18.132,37.3,33.35,44.143,48.567,44.143S79,37.3,90.034,23.6C82.425,37.3,67.208,47.186,48.567,47.567,30.306,47.567,14.709,37.3,7.1,23.98Z" transform="translate(-7.1 -23.6)" fill="#fff"/>
          </g>
        </g>
        <g id="Group_17045" data-name="Group 17045" transform="translate(8.369 2.283)" opacity="0.2">
          <g id="Group_17044" data-name="Group 17044">
            <path id="Path_70232" data-name="Path 70232" d="M98.625,34.936C89.114,16.676,71.234,6.024,52.212,6.024S15.311,16.676,5.8,34.556C11.887,17.056,30.147,2.98,52.212,2.6,74.277,2.98,92.157,17.056,98.625,34.936Z" transform="translate(-5.8 -2.6)" fill="#fff"/>
          </g>
        </g>
        <g id="Group_17047" data-name="Group 17047" transform="translate(13.315 82.173)" opacity="0.4">
          <g id="Group_17046" data-name="Group 17046">
            <path id="Path_70233" data-name="Path 70233" d="M7.1,23.98C18.132,37.3,33.35,44.143,48.567,44.143S79,37.3,90.034,23.6C82.425,37.3,67.208,47.186,48.567,47.567,30.306,47.567,14.709,37.3,7.1,23.98Z" transform="translate(-7.1 -23.6)" fill="#fff"/>
          </g>
        </g>
        <g id="Group_17049" data-name="Group 17049" transform="translate(13.315 13.315)">
          <g id="Group_17048" data-name="Group 17048">
            <path id="Path_70234" data-name="Path 70234" d="M90.034,46.967A41.467,41.467,0,1,1,48.567,5.5,41.564,41.564,0,0,1,90.034,46.967Z" transform="translate(-7.1 -5.5)" fill="#1f39ff"/>
          </g>
        </g>
        <g id="Group_17052" data-name="Group 17052" transform="translate(24.697 25.203)">
          <g id="Group_17051" data-name="Group 17051">
            <g id="Group_17050" data-name="Group 17050">
              <path id="Path_70235" data-name="Path 70235" d="M53.872,44.29l2.282,14.456a2.793,2.793,0,0,1-3.8,3.043L39.416,54.942a3.249,3.249,0,0,0-2.663,0L23.818,61.79c-1.9,1.141-4.185-.761-3.8-3.043L22.3,44.29c0-.761,0-1.9-.761-2.283L10.884,31.736a2.688,2.688,0,0,1,1.522-4.565l14.456-2.283a2.528,2.528,0,0,0,1.9-1.522l6.848-13.315a2.856,2.856,0,0,1,4.946,0l6.467,13.315a2.528,2.528,0,0,0,1.9,1.522l14.456,2.283A2.688,2.688,0,0,1,64.9,31.736L54.252,42.008A2.335,2.335,0,0,0,53.872,44.29Z" transform="translate(-10.092 -8.625)" fill="#1f39ff"/>
            </g>
          </g>
        </g>
        <g id="Group_17054" data-name="Group 17054" transform="translate(13.287 13.315)">
          <g id="Group_17053" data-name="Group 17053">
            <path id="Path_70236" data-name="Path 70236" d="M85.869,64.847C96.9,38.6,77.5,8.924,48.587,8.924,20.055,8.924.273,37.836,10.925,64.467-1.629,37.076,18.153,5.5,48.587,5.5,79.4,5.5,99.184,37.836,85.869,64.847Z" transform="translate(-7.093 -5.5)" fill="#fafdff"/>
          </g>
        </g>
        <g id="Group_17057" data-name="Group 17057" transform="translate(26.98 27.486)">
          <g id="Group_17056" data-name="Group 17056">
            <g id="Group_17055" data-name="Group 17055">
              <path id="Path_70237" data-name="Path 70237" d="M54.472,44.89l2.283,14.456a2.793,2.793,0,0,1-3.8,3.043L40.016,55.542a3.25,3.25,0,0,0-2.663,0L24.418,62.39c-1.9,1.141-4.185-.761-3.8-3.043L22.9,44.89c0-.761,0-1.9-.761-2.283L11.484,32.336a2.688,2.688,0,0,1,1.522-4.565l14.456-2.283a2.527,2.527,0,0,0,1.9-1.522l6.467-13.315a2.856,2.856,0,0,1,4.946,0l6.467,13.315a2.527,2.527,0,0,0,1.9,1.522L63.6,27.771a2.688,2.688,0,0,1,1.522,4.565L55.233,42.608A1.83,1.83,0,0,0,54.472,44.89Z" transform="translate(-10.692 -9.225)" fill="#f5ee9e"/>
            </g>
          </g>
        </g>
      </g>
      <g id="Group_17060" data-name="Group 17060" transform="translate(29.643 30.529)" opacity="0.5">
        <g id="Group_17059" data-name="Group 17059">
          <path id="Path_70238" data-name="Path 70238" d="M12.184,30.473c-1.522-1.522-.761-3.8,1.522-4.185l12.935-1.9a3.234,3.234,0,0,0,1.9-1.141l5.706-11.793a2.248,2.248,0,0,1,4.185,0L44.14,23.245a2.092,2.092,0,0,0,1.9,1.141l12.935,1.9A2.643,2.643,0,0,1,60.5,30.473S52.129,39.6,35.77,39.6C23.216,39.6,12.184,30.473,12.184,30.473Z" transform="translate(-11.392 -10.025)" fill="#fff"/>
        </g>
      </g>
    </g>
    <g id="Group_17063" data-name="Group 17063" transform="translate(50.638 34.19)" opacity="0.7">
      <g id="Group_17062" data-name="Group 17062">
        <path id="Path_70239" data-name="Path 70239" d="M21.435,16.742c-1.141,2.663-3.043,4.565-3.8,4.185s-1.141-3.043,0-5.706,3.044-4.565,3.8-4.185S22.577,14.079,21.435,16.742Z" transform="translate(-16.911 -10.987)" fill="#fff"/>
      </g>
    </g>
  </g>
  <g id="Group_17066" data-name="Group 17066" transform="translate(16.358 14.837)">
    <g id="Group_17065" data-name="Group 17065">
      <path id="Path_70240" data-name="Path 70240" d="M25.4,18.835a5.5,5.5,0,0,0-2.663.761c.38.38,3.424,3.424,3.043,3.8s-3.424-2.663-3.8-3.043a5.5,5.5,0,0,0-.761,2.663c0,4.185-.38,6.848-1.141,6.848-.38,0-.761-2.663-1.141-6.848a5.5,5.5,0,0,0-.761-2.663c-.38.38-3.424,3.424-3.8,3.043s2.663-3.424,3.043-3.8a5.5,5.5,0,0,0-2.663-.761c-9.13-.38-9.13-1.522,0-1.9a7.053,7.053,0,0,0,2.663-.761c-.38-.38-3.424-3.424-3.043-3.8s3.424,2.663,3.8,3.043a5.5,5.5,0,0,0,.761-2.663c.38-9.13,1.522-9.13,1.9,0a7.053,7.053,0,0,0,.761,2.663c.38-.38,3.424-3.424,3.8-3.043s-.761,1.9-2.663,3.8v.38a5.5,5.5,0,0,0,2.663.761c4.185,0,6.848.38,6.848,1.141A53.511,53.511,0,0,1,25.4,18.835Z" transform="translate(-7.9 -5.9)" fill="#fff"/>
    </g>
  </g>
  <g id="Group_17068" data-name="Group 17068" transform="translate(8.369 2.283)" opacity="0.2">
    <g id="Group_17067" data-name="Group 17067">
      <path id="Path_70241" data-name="Path 70241" d="M98.625,34.936C89.114,16.676,71.234,6.024,52.212,6.024S15.311,16.676,5.8,34.556C11.887,17.056,30.147,2.98,52.212,2.6,74.277,2.98,92.157,17.056,98.625,34.936Z" transform="translate(-5.8 -2.6)" fill="#fff"/>
    </g>
  </g>
</svg>
