<svg id="Purchase_Successfully" data-name="Purchase Successfully" xmlns="http://www.w3.org/2000/svg" width="119.984" height="120" viewBox="0 0 119.984 120">
  <path id="Path_84271" data-name="Path 84271" d="M105.427,23.49h-2.4L82.75,3.212A4.2,4.2,0,0,0,76.81,9.152L91.149,23.49H32.836L47.174,9.152a4.2,4.2,0,0,0-5.939-5.939L21.018,23.49h-2.4C13.219,23.49,2,23.49,2,38.848c0,5.819,1.2,9.659,3.72,12.179a9.684,9.684,0,0,0,5.039,2.7,23.2,23.2,0,0,0,5.4.48h91.668a25.055,25.055,0,0,0,5.279-.48c5.039-1.2,8.879-4.8,8.879-14.878,0-15.358-11.219-15.358-16.558-15.358Z" transform="translate(-2 -1.998)" fill="#00e0be" opacity="0.4"/>
  <path id="Path_84272" data-name="Path 84272" d="M100.649,11.15H8.86a20.641,20.641,0,0,1-5.4-.54L11.02,56.744c1.74,10.319,6.239,22.2,26.217,22.2H70.892c20.217,0,23.817-10.139,25.977-21.477l9.059-46.854a21.911,21.911,0,0,1-5.279.54Zm-28.676,26.1-19.5,18a4.577,4.577,0,0,1-3.06,1.2,4.45,4.45,0,0,1-3.18-1.32l-9-9A4.5,4.5,0,1,1,43.6,39.766l5.939,5.939L65.853,30.648a4.53,4.53,0,0,1,6.359.24,4.421,4.421,0,0,1-.24,6.359Z" transform="translate(5.303 41.059)" fill="#00e0be"/>
</svg>
