<svg id="XMLID_1_" xmlns="http://www.w3.org/2000/svg" width="142.768" height="165.306" viewBox="0 0 142.768 165.306">
  <g id="XMLID_3909_">
    <path id="XMLID_495_" d="M110.559,169.759l18.051-37.875,28.16-16.607L189,81.078a13.06,13.06,0,0,0-17.395-4.562L149.747,88.627V72.052l5.415-53.366a5.063,5.063,0,0,0-9.846-2.1L132.647,54.854l1.214-43.225a6.435,6.435,0,0,0-12.833-.853l-4.5,44.6-5.218-38.17a5.572,5.572,0,0,0-11.093.689l-.492,40.8-10.4-27.339a5.446,5.446,0,0,0-10.437,2.954L86.7,75.958l-4.529,46.933L61,169.759Z" transform="translate(-52 -5)" fill="#f5ee9e"/>
    <path id="XMLID_2423_" d="M129.2,143.68s-4.4,11.138,0,35.327a22.162,22.162,0,0,1-10.66,23.687L116.9,219.6l-4.2,9.321s11.159,24.78,37.908,26.453l8.238-17.264C156.548,207.978,129.2,143.68,129.2,143.68Z" transform="translate(-86.732 -101.738)" fill="#f9d544" opacity="0.47"/>
    <path id="XMLID_496_" d="M147.12,265.812l-13.739-30.5-24.419-14.44L81,191.106a11.315,11.315,0,0,1,15.122-3.951l18.936,10.524V177.108l-6.948-37.565a5.867,5.867,0,0,1,11.341-2.895l9.264,27.825V130.79a5.787,5.787,0,0,1,11.511-.851l5.381,35.386,2.929-29.46a4.873,4.873,0,0,1,9.706.136L161,172.374l6.811-24.113a4.511,4.511,0,0,1,6.335-2.793,4.434,4.434,0,0,1,2.384,4.836l-6.812,36.373,3.917,40.8,16.5,38.333Z" transform="translate(-66.763 -100.507)" fill="#ffcc01"/>
    <g id="Group_74070" data-name="Group 74070" transform="translate(0 21.114)">
      <path id="XMLID_494_" d="M76.787,210.275,65.267,198,61,211.424Z" transform="translate(-61 -167.77)" fill="#ff4a2b"/>
      <path id="XMLID_493_" d="M360.5,113.224,371.232,99.8l6.892,9.977Z" transform="translate(-235.356 -99.8)" fill="#ff4a2b"/>
      <path id="XMLID_491_" d="M380.3,366.4l14.966,3.446-7.483,9.879Z" transform="translate(-255.156 -267.901)" fill="#ff4a2b"/>
    </g>
  </g>
</svg>
