<svg xmlns="http://www.w3.org/2000/svg" width="26.088" height="32" viewBox="0 0 26.088 32">
  <path id="apple" d="M14.394,2.785A6.849,6.849,0,0,1,19.419,0a6.833,6.833,0,0,1-1.654,5.115A5.4,5.4,0,0,1,13,7.357,5.942,5.942,0,0,1,14.394,2.785Zm-1.126,6.4c1.082,0,3.089-1.487,5.7-1.487a7.142,7.142,0,0,1,6.267,3.2,6.949,6.949,0,0,0-3.461,6.063,7.126,7.126,0,0,0,4.311,6.512S23.074,31.953,19,31.953c-1.87,0-3.323-1.26-5.293-1.26-2.007,0-4,1.307-5.3,1.307C4.7,32,0,23.954,0,17.486c0-6.364,3.975-9.7,7.7-9.7C10.127,7.784,12.008,9.182,13.268,9.182Z" fill="#999"/>
</svg>
