<svg id="Group_17290" data-name="Group 17290" xmlns="http://www.w3.org/2000/svg" xmlns:xlink="http://www.w3.org/1999/xlink" width="31.272" height="32" viewBox="0 0 31.272 32">
  <defs>
    <clipPath id="clip-path">
      <path id="Path_84306" data-name="Path 84306" d="M-337.891,298.391H-352.8v6.182h8.582c-.8,3.927-4.145,6.182-8.582,6.182a9.436,9.436,0,0,1-9.455-9.455,9.436,9.436,0,0,1,9.455-9.455,9.25,9.25,0,0,1,5.891,2.109l4.655-4.655a15.927,15.927,0,0,0-10.545-4,15.954,15.954,0,0,0-16,16,15.954,15.954,0,0,0,16,16c8,0,15.273-5.818,15.273-16A13.274,13.274,0,0,0-337.891,298.391Z" transform="translate(368.8 -285.3)"/>
    </clipPath>
  </defs>
  <g id="Group_17284" data-name="Group 17284" transform="translate(0 0)" clip-path="url(#clip-path)">
    <path id="Path_84305" data-name="Path 84305" d="M-370.8,313.209V294.3l12.364,9.455Z" transform="translate(369.345 -287.755)" fill="#fbbc05"/>
  </g>
  <g id="Group_17285" data-name="Group 17285" transform="translate(0 0)" clip-path="url(#clip-path)">
    <path id="Path_84307" data-name="Path 84307" d="M-370.8,291.3l12.364,9.455,5.091-4.436,17.455-2.836V283.3H-370.8Z" transform="translate(369.345 -284.754)" fill="#ea4335"/>
  </g>
  <g id="Group_17287" data-name="Group 17287" transform="translate(0 0)">
    <g id="Group_17286" data-name="Group 17286" clip-path="url(#clip-path)">
      <path id="Path_84309" data-name="Path 84309" d="M-370.8,310.209l21.818-16.727,5.745.727,7.345-10.909v34.909H-370.8Z" transform="translate(369.345 -284.754)" fill="#34a853"/>
    </g>
  </g>
  <g id="Group_17289" data-name="Group 17289" transform="translate(0 0)">
    <g id="Group_17288" data-name="Group 17288" clip-path="url(#clip-path)">
      <path id="Path_84311" data-name="Path 84311" d="M-332.345,321.209l-22.545-17.455-2.909-2.182,25.455-7.273Z" transform="translate(365.8 -287.755)" fill="#4285f4"/>
    </g>
  </g>
</svg>
